<?xml version="1.0" standalone="no"?>
<!DOCTYPE svg PUBLIC "-//W3C//DTD SVG 20010904//EN"
 "http://www.w3.org/TR/2001/REC-SVG-20010904/DTD/svg10.dtd">
<svg version="1.0" xmlns="http://www.w3.org/2000/svg"
 width="960.000000pt" height="960.000000pt" viewBox="0 0 960.000000 960.000000"
 preserveAspectRatio="xMidYMid meet">
<metadata>
Created by potrace 1.11, written by Peter Selinger 2001-2013
</metadata>
<g transform="translate(0.000000,960.000000) scale(0.100000,-0.100000)"
fill="#000000" stroke="none">
<path d="M2408 7861 l-33 -29 0 -672 0 -672 33 -29 32 -29 288 0 c314 0 379 8
473 55 111 57 207 184 225 300 34 210 -45 354 -231 425 -30 11 -30 12 -8 23
45 25 107 93 132 147 21 45 25 69 24 130 -2 180 -114 315 -303 365 -38 10
-128 14 -326 15 l-273 1 -33 -30z m643 -179 c27 -13 58 -39 73 -61 53 -75 43
-203 -19 -265 -56 -56 -99 -64 -329 -66 l-206 -1 0 211 0 211 218 -3 c202 -3
220 -5 263 -26z m16 -586 c119 -32 179 -109 177 -231 -1 -110 -45 -179 -143
-228 -43 -21 -61 -22 -288 -25 l-243 -4 0 251 0 251 223 0 c157 0 237 -4 274
-14z"/>
<path d="M4319 7883 c-8 -2 -23 -17 -32 -32 -16 -27 -17 -87 -17 -690 0 -462
3 -667 11 -684 19 -42 74 -58 122 -36 43 19 48 42 48 197 1 81 3 154 5 164 3
9 24 32 48 52 l43 35 127 -158 c69 -87 136 -169 147 -182 12 -13 33 -40 48
-59 59 -79 110 -92 162 -41 49 50 42 75 -58 198 -136 169 -214 264 -256 314
l-38 47 48 44 c26 25 107 97 180 162 72 64 134 123 137 132 29 76 -56 149
-124 106 -14 -9 -43 -32 -65 -53 -22 -21 -49 -46 -61 -56 -12 -10 -57 -50
-100 -89 -158 -142 -229 -204 -236 -204 -3 0 -6 174 -6 386 1 289 -2 391 -12
409 -20 37 -69 52 -121 38z"/>
<path d="M3786 7859 c-99 -28 -121 -159 -37 -216 83 -56 190 -1 190 97 1 83
-75 142 -153 119z"/>
<path d="M5664 7446 c-161 -32 -288 -145 -356 -318 -18 -44 -21 -76 -22 -183
0 -121 2 -135 28 -200 68 -165 197 -273 371 -308 163 -33 364 13 465 105 28
25 31 34 26 61 -13 69 -92 93 -156 47 -88 -63 -246 -81 -351 -41 -98 37 -182
128 -207 224 -6 20 -7 38 -4 38 4 1 172 2 374 3 365 1 368 1 390 23 27 28 31
96 11 191 -57 275 -280 415 -569 358z m238 -170 c21 -9 54 -31 74 -48 40 -35
94 -137 94 -178 l0 -25 -302 0 c-231 0 -302 3 -305 12 -7 20 16 81 48 128 43
63 105 106 184 125 53 12 161 5 207 -14z"/>
<path d="M3768 7439 c-41 -24 -43 -38 -44 -484 0 -236 3 -445 8 -462 9 -35 49
-63 88 -63 34 0 80 32 87 60 4 14 7 219 8 455 1 453 -1 471 -44 495 -25 13
-81 13 -103 -1z"/>
<path d="M3448 5665 c-1 -1 -27 -6 -57 -9 -219 -26 -437 -185 -529 -386 -53
-116 -64 -169 -68 -325 -3 -133 -1 -159 20 -235 31 -110 49 -151 102 -232 99
-148 277 -262 459 -293 61 -11 233 -13 274 -4 20 4 50 10 66 12 17 3 53 13 80
22 225 77 389 260 450 500 20 75 26 285 12 362 -55 296 -270 516 -562 575 -47
9 -239 20 -247 13z m231 -192 c316 -82 485 -440 364 -773 -24 -67 -98 -174
-151 -220 -165 -143 -422 -171 -626 -68 -135 68 -250 227 -279 386 -59 316
105 596 398 677 64 18 221 17 294 -2z"/>
<path d="M5010 5220 c-97 -12 -146 -33 -227 -98 l-43 -33 0 36 c0 48 -36 85
-84 85 -46 0 -84 -18 -93 -44 -4 -12 -7 -219 -8 -461 -2 -465 0 -481 44 -505
41 -21 121 -1 135 35 3 8 6 152 6 319 1 167 5 320 11 339 33 121 192 185 384
155 79 -12 103 -5 121 37 31 75 -24 120 -166 138 -14 2 -50 0 -80 -3z"/>
<path d="M3829 3409 c-211 -50 -379 -182 -481 -379 -51 -98 -70 -181 -74 -320
-4 -139 7 -217 44 -312 70 -180 211 -330 377 -403 195 -86 443 -80 626 17 57
30 128 84 141 108 35 63 -13 144 -80 134 -13 -2 -51 -22 -85 -44 -112 -73
-228 -106 -347 -97 -373 26 -604 453 -443 817 49 110 151 217 257 269 78 38
122 48 232 50 101 2 190 -21 259 -68 22 -15 57 -40 79 -54 41 -29 71 -29 111
-3 29 19 39 48 31 90 -11 56 -167 158 -293 192 -89 23 -262 25 -354 3z"/>
<path d="M6438 2974 c-70 -16 -129 -45 -185 -91 l-43 -34 0 40 c0 31 -6 44
-26 60 -39 31 -103 28 -134 -4 l-24 -25 0 -459 c0 -431 1 -461 18 -480 37 -41
124 -38 152 5 14 20 16 68 16 321 0 170 4 315 10 338 33 130 175 191 380 164
89 -12 120 -2 132 46 14 56 -45 112 -128 121 -97 10 -114 10 -168 -2z"/>
<path d="M5100 2964 c-179 -48 -324 -190 -370 -363 -33 -123 -12 -294 51 -412
142 -265 505 -326 726 -122 l41 38 4 -54 c4 -44 10 -59 32 -78 40 -34 94 -31
131 7 l28 29 0 243 c0 270 -4 318 -35 398 -56 145 -157 244 -303 300 -77 29
-224 36 -305 14z m262 -181 c69 -31 131 -93 164 -166 25 -54 28 -74 28 -157 0
-77 -4 -105 -22 -144 -68 -150 -218 -229 -374 -197 -148 31 -258 173 -260 335
-2 166 90 297 242 347 44 15 171 4 222 -18z"/>
</g>
</svg>
